<svg width="23" height="22" viewBox="0 0 23 22" fill="none" xmlns="http://www.w3.org/2000/svg">
<path fill-rule="evenodd" clip-rule="evenodd" d="M7.1846 0H15.4346C19.231 0 22.3096 3.07862 22.3096 6.875V15.125C22.3096 18.9214 19.231 22 15.4346 22H7.1846C3.38823 22 0.309601 18.9214 0.309601 15.125V6.875C0.309601 3.07862 3.38823 0 7.1846 0ZM15.4346 19.9375C18.0884 19.9375 20.2471 17.7787 20.2471 15.125V6.875C20.2471 4.22125 18.0884 2.0625 15.4346 2.0625H7.1846C4.53085 2.0625 2.3721 4.22125 2.3721 6.875V15.125C2.3721 17.7787 4.53085 19.9375 7.1846 19.9375H15.4346Z" fill="white"/>
<path fill-rule="evenodd" clip-rule="evenodd" d="M5.8096 11C5.8096 7.96263 8.27223 5.5 11.3096 5.5C14.347 5.5 16.8096 7.96263 16.8096 11C16.8096 14.0374 14.347 16.5 11.3096 16.5C8.27223 16.5 5.8096 14.0374 5.8096 11ZM7.8721 11C7.8721 12.8948 9.41485 14.4375 11.3096 14.4375C13.2044 14.4375 14.7471 12.8948 14.7471 11C14.7471 9.10388 13.2044 7.5625 11.3096 7.5625C9.41485 7.5625 7.8721 9.10388 7.8721 11Z" fill="white"/>
<circle cx="17.2221" cy="5.08761" r="0.732875" fill="white"/>
</svg>
