<svg width="23" height="18" viewBox="0 0 23 18" fill="none" xmlns="http://www.w3.org/2000/svg">
<path d="M22.3096 2.11613C21.4915 2.475 20.6198 2.71288 19.7109 2.82838C20.6459 2.27013 21.3595 1.39287 21.695 0.3355C20.8233 0.85525 19.8608 1.22238 18.835 1.42725C18.0073 0.545875 16.8275 0 15.5405 0C13.0435 0 11.0333 2.02675 11.0333 4.51137C11.0333 4.86887 11.0635 5.21263 11.1378 5.53988C7.38813 5.357 4.07026 3.55987 1.84138 0.82225C1.45226 1.49738 1.22401 2.27012 1.22401 3.102C1.22401 4.664 2.02838 6.04862 3.22738 6.85025C2.50276 6.8365 1.79188 6.62613 1.18963 6.29475C1.18963 6.3085 1.18963 6.32638 1.18963 6.34425C1.18963 8.536 2.75301 10.3565 4.80313 10.7759C4.43601 10.8763 4.03588 10.9244 3.62063 10.9244C3.33188 10.9244 3.04038 10.9079 2.76676 10.8474C3.35113 12.6335 5.00938 13.9466 6.98113 13.9893C5.44663 15.1896 3.49826 15.9129 1.38901 15.9129C1.01913 15.9129 0.664381 15.8964 0.309631 15.851C2.30751 17.1394 4.67526 17.875 7.22863 17.875C15.5281 17.875 20.0656 11 20.0656 5.04075C20.0656 4.84138 20.0588 4.64887 20.0491 4.45775C20.9443 3.8225 21.6964 3.02913 22.3096 2.11613Z" fill="white"/>
</svg>
